<svg width="17" height="19" viewBox="0 0 17 19" fill="none" xmlns="http://www.w3.org/2000/svg">
<path d="M15.5 16C16.3284 16 17 16.6716 17 17.5C17 18.3284 16.3284 19 15.5 19H1.5C0.671573 19 0 18.3284 0 17.5C0 16.6716 0.671573 16 1.5 16H15.5ZM15.5 8C16.3284 8 17 8.67157 17 9.5C17 10.3284 16.3284 11 15.5 11H1.5C0.671573 11 0 10.3284 0 9.5C0 8.67157 0.671573 8 1.5 8H15.5ZM15.5 0C16.3284 0 17 0.671573 17 1.5C17 2.32843 16.3284 3 15.5 3H1.5C0.671573 3 0 2.32843 0 1.5C0 0.671573 0.671573 0 1.5 0H15.5Z" fill="#FAFAFA"/>
</svg>
