<svg width="current" height="curren" viewBox="0 0 141 41" fill="none" xmlns="http://www.w3.org/2000/svg">
<path d="M133.948 0.00390625C135.956 0.0679229 138.779 1.03456 140.238 4.01172C141.326 6.23256 140.984 8.37593 140.799 9.28223C140.378 11.3387 139.264 13.6375 138.033 15.8623C136.786 18.1159 135.869 19.94 135.208 21.3965L136.876 25.7158L139.218 31.7793C137.144 32.5803 134.703 33.477 132.485 33.9053C131.37 34.1207 129.912 34.3019 128.368 34.1064C126.758 33.9025 124.626 33.2209 122.947 31.3242C121.286 29.447 120.832 27.24 120.796 25.5342C120.775 24.5373 120.89 23.5476 121.081 22.5957C115.217 27.0606 108.46 32.1868 102.81 35.7598C100.476 37.2353 98.3469 38.4207 96.4014 39.25C94.5062 40.0578 92.3763 40.7069 90.1494 40.6953C87.676 40.6824 85.3736 39.8501 83.5137 38.1963C81.8564 36.7226 80.9152 34.9142 80.332 33.5479C79.7387 32.1575 79.2736 30.6201 78.8857 29.3047C78.4663 27.8823 78.0898 26.5514 77.6064 25.1045C76.6665 22.2907 75.4265 19.3827 73.3594 16.5283C72.4561 15.2812 71.8585 14.893 71.6758 14.7969C71.595 14.7544 71.6206 14.7603 71.5371 14.7715C70.8862 14.8588 69.3323 15.5479 66.3809 18.1113C63.3789 20.7186 60.8956 23.3918 57.0088 26.9912C53.5129 30.2285 49.3703 33.7028 44.6475 36.0742C42.5142 37.1454 40.3986 38.0162 38.3955 38.3838C36.4367 38.7432 33.2962 38.8317 30.6611 36.5518C28.2096 34.4304 27.7828 31.5741 27.6738 30.1943C27.5532 28.6664 27.7027 27.0724 27.8223 25.9316C28.1126 23.1621 28.3698 21.3984 28.1777 19.7969C28.0344 18.6022 27.7682 18.5094 27.5303 18.375C27.5187 18.3667 27.2481 18.1372 26.1055 18.5312C24.8266 18.9724 23.1134 20.0086 21.0947 21.7422C17.0845 25.1861 13.2413 30.1828 10.9688 33.7549L0 26.7764C2.68961 22.5488 7.32579 16.4307 12.625 11.8799C15.2609 9.61623 18.4108 7.43413 21.8662 6.24219C25.4454 5.00763 29.7878 4.72039 33.9238 7.05664C38.8637 9.84714 40.6206 14.3867 41.084 18.249C41.2799 19.8823 41.2584 21.5751 41.1621 23.1025C43.4397 21.6301 45.7525 19.6972 48.1758 17.4531C51.0443 14.7967 54.8716 10.8883 57.8564 8.2959C60.8916 5.65979 65.0021 2.53084 69.8125 1.88672C75.6496 1.10532 80.3933 4.07838 83.8877 8.90332C86.9983 13.1985 88.7528 17.4417 89.9365 20.9854C90.5149 22.7168 90.9827 24.367 91.3545 25.6279C91.5203 26.1901 91.6661 26.6646 91.7959 27.0703C92.8001 26.6008 94.1269 25.8687 95.8623 24.7715C104.492 19.3151 114.296 11.1622 122.258 5.47656C124.131 4.13856 125.955 2.90705 127.562 1.99316C128.362 1.53763 129.243 1.0831 130.142 0.731445C130.912 0.429898 132.308 -0.0483844 133.948 0.00390625Z" fill="#FF913C"/>
</svg>
