<svg width="189" height="132" viewBox="0 0 189 132" fill="none" xmlns="http://www.w3.org/2000/svg">
<path d="M297.438 2.53125C298.752 1.58671 301.453 -0.179898 304.797 0.015625C306.827 0.134494 308.805 0.966675 310.336 2.52539C311.723 3.93888 312.374 5.56956 312.701 6.79395C313.323 9.12444 313.225 11.7419 312.963 14.0918C312.413 19.0228 310.704 26.1082 307.872 35.5107C302.276 54.085 299.002 67.4099 297.48 76.7344C296.719 81.3974 296.429 84.8756 296.458 87.4043C296.469 88.4171 296.532 89.198 296.611 89.7881C299.192 88.7893 302.826 86.4927 307.594 83.1104C310.756 80.8677 315.138 81.6127 317.381 84.7744C319.623 87.9363 318.878 92.3177 315.717 94.5605C310.944 97.9454 305.681 101.476 300.965 103.148C298.587 103.992 295.47 104.695 292.234 103.942C288.55 103.086 285.871 100.629 284.323 97.418C282.93 94.5272 282.46 91.0963 282.42 87.5645C282.378 83.9315 282.791 79.5827 283.625 74.4736C285.292 64.253 288.771 50.248 294.43 31.4619C295.316 28.5232 296.059 25.9066 296.675 23.5898C295.253 25.3538 293.726 27.3096 292.101 29.4404C283.738 40.4083 273.455 55.1032 262.531 70.2783C251.698 85.3259 240.286 100.771 229.936 112.788C224.757 118.802 220.236 123.395 216.232 126.529C212.431 129.505 208.056 132.006 203.33 131.961C197.807 131.908 194.146 128.525 191.963 124.959C189.912 121.611 188.598 117.294 187.579 112.91C185.577 104.295 183.962 91.568 181.625 78.7197C179.201 65.396 175.83 50.6773 170.066 36.0615C167.196 28.783 164.619 24.8269 162.627 22.9023C160.969 21.3004 160.253 21.5209 159.842 21.6221C158.717 21.8988 156.658 23.0691 153.657 26.3525C150.78 29.5003 147.666 33.8849 144.276 39.291C137.334 50.3626 130.452 63.6416 122.292 77.5186C114.442 90.8685 105.651 104.3 95.8162 113.368C91.2095 117.616 86.8921 120.842 82.8484 122.205C80.6991 122.929 78.0757 123.316 75.363 122.499C72.529 121.645 70.5645 119.773 69.3132 117.784C67.1354 114.323 66.6372 109.747 66.4773 106.028C66.3022 101.957 66.5119 97.1619 66.7927 92.2412C67.3707 82.1153 68.2611 71.0161 67.5935 60.7969C66.9118 50.3628 64.675 42.696 60.4939 38.3584C59.061 36.872 58.0939 36.6534 57.5554 36.6201C56.8722 36.578 55.6272 36.7765 53.6726 38.0146C49.5587 40.6207 44.6054 46.3501 39.323 54.6807C28.9486 71.0418 19.3285 94.1264 13.6541 110.506C12.3849 114.169 8.38625 116.109 4.72339 114.84C1.06084 113.571 -0.880183 109.573 0.388428 105.91C6.21892 89.0804 16.2577 64.8406 27.4675 47.1621C32.9771 38.4732 39.2983 30.5025 46.1609 26.1553C49.6938 23.9174 53.8634 22.3265 58.4226 22.6084C63.1266 22.8994 67.2312 25.1204 70.6003 28.6152C78.4241 36.7313 80.8771 48.7821 81.6023 59.8818C82.3415 71.1968 81.3559 83.4489 80.8083 93.041C80.5265 97.9788 80.3613 102.135 80.5027 105.425C80.5388 106.265 80.5931 107.003 80.6628 107.646C82.0072 106.743 83.8596 105.299 86.3005 103.048C94.4737 95.5115 102.377 83.6889 110.19 70.4023C117.693 57.6428 125.443 42.9009 132.383 31.833C135.933 26.17 139.572 20.9542 143.295 16.8809C146.893 12.9438 151.283 9.27065 156.49 7.99023C162.409 6.53471 167.908 8.48489 172.382 12.8066C176.521 16.8062 179.994 22.9688 183.126 30.9111C189.367 46.7374 192.937 62.4616 195.437 76.207C198.024 90.4276 199.317 101.397 201.254 109.732C202.204 113.823 203.118 116.296 203.934 117.628C203.958 117.666 203.982 117.701 204.004 117.734C204.623 117.481 205.777 116.885 207.579 115.475C210.522 113.171 214.349 109.374 219.299 103.627C229.208 92.1212 240.305 77.1241 251.137 62.0762C261.879 47.1554 272.419 32.0994 280.938 20.9277C285.193 15.3479 289.115 10.5068 292.44 7.0332C294.088 5.31204 295.779 3.72427 297.438 2.53125Z" fill="#FF913C"/>
</svg>
