<svg width="437" height="146" viewBox="0 0 437 146" fill="none" xmlns="http://www.w3.org/2000/svg">
<path d="M415.684 2.53027C416.997 1.58569 419.699 -0.181085 423.043 0.0146484C425.073 0.133602 427.051 0.965912 428.581 2.52441C429.969 3.93784 430.62 5.5686 430.946 6.79297C431.568 9.12343 431.471 11.7409 431.209 14.0908C430.659 19.0219 428.95 26.1072 426.117 35.5098C420.522 54.0841 417.247 67.4089 415.726 76.7334C414.965 81.3964 414.674 84.8746 414.703 87.4033C414.715 88.4161 414.778 89.197 414.856 89.7871C417.438 88.7883 421.071 86.4919 425.84 83.1094C429.002 80.8667 433.383 81.6119 435.626 84.7734C437.869 87.9354 437.124 92.3168 433.962 94.5596C429.19 97.9445 423.927 101.475 419.21 103.147C416.832 103.991 413.715 104.694 410.479 103.941C406.796 103.085 404.117 100.628 402.569 97.417C401.176 94.5262 400.706 91.0954 400.666 87.5635C400.625 83.9305 401.037 79.5817 401.87 74.4727C403.538 64.252 407.016 50.247 412.676 31.4609C413.561 28.5217 414.305 25.9049 414.921 23.5879C413.499 25.3522 411.972 27.3081 410.347 29.4395C401.983 40.4074 391.701 55.1022 380.776 70.2773C369.944 85.325 358.531 100.77 348.182 112.787C343.002 118.801 338.481 123.394 334.478 126.528C330.676 129.504 326.301 132.005 321.575 131.96C316.052 131.907 312.392 128.524 310.208 124.958C308.158 121.61 306.844 117.293 305.825 112.909C303.823 104.294 302.208 91.5669 299.871 78.7188C297.447 65.395 294.075 50.6762 288.312 36.0605C285.441 28.7822 282.864 24.8259 280.872 22.9014C279.214 21.3 278.499 21.5199 278.088 21.6211C276.964 21.8975 274.905 23.0676 271.903 26.3516C269.026 29.4994 265.911 33.8836 262.521 39.29C255.58 50.3617 248.698 63.6407 240.538 77.5176C232.688 90.8676 223.897 104.299 214.062 113.367C209.469 117.603 205.111 120.852 200.997 122.14C198.781 122.833 196.072 123.135 193.323 122.128C190.503 121.094 188.67 119.062 187.553 117.066C185.579 113.541 185.17 108.934 185.078 105.07C184.978 100.872 185.261 95.9349 185.612 90.8545C186.334 80.4212 187.361 68.9851 186.794 58.5234C186.213 47.8088 184.013 40.0466 179.877 35.7559C179.198 35.0515 178.773 34.841 178.646 34.7891C178.568 34.7574 178.568 34.7628 178.525 34.7686C178.243 34.8062 177.065 35.1624 174.952 37.2285C170.727 41.3598 165.98 49.0646 160.702 58.8066C155.701 68.0382 150.173 79.1997 144.964 88.2344C142.305 92.846 139.555 97.2218 136.74 100.904C133.989 104.503 130.835 107.899 127.249 110.084C127.166 110.135 127.081 110.183 126.996 110.229C122.88 113.067 118.536 115.782 114.576 117.187C112.199 118.03 109.082 118.733 105.846 117.98C102.162 117.124 99.4825 114.667 97.9346 111.456C96.5414 108.565 96.0716 105.134 96.0312 101.603C95.9898 97.9696 96.4028 93.6207 97.2363 88.5117C98.9039 78.2911 102.383 64.286 108.042 45.5C108.927 42.5613 109.67 39.9446 110.286 37.6279C108.865 39.3919 107.338 41.3476 105.713 43.4785C97.3494 54.4464 87.067 69.1413 76.1426 84.3164C65.31 99.364 53.8974 114.809 43.5479 126.826C38.3684 132.84 33.8472 137.434 29.8438 140.567C26.0426 143.543 21.6676 146.044 16.9414 145.999C11.4184 145.946 7.7579 142.563 5.57422 138.997C3.52377 135.649 2.20929 131.332 1.19043 126.948C-0.811615 118.333 -2.42656 105.606 -4.76367 92.7578C-7.18732 79.4342 -10.5584 64.7152 -16.3223 50.0996C-19.1925 42.8215 -21.7698 38.8651 -23.7617 36.9404C-25.4199 35.3385 -26.1355 35.559 -26.5469 35.6602C-27.671 35.9367 -29.73 37.1069 -32.7314 40.3906C-35.6085 43.5384 -38.7227 47.9229 -42.1123 53.3291C-49.0539 64.4007 -55.9367 77.6797 -64.0967 91.5566C-71.9468 104.907 -80.7377 118.338 -90.5723 127.406C-95.179 131.654 -99.4963 134.88 -103.54 136.243C-105.689 136.968 -108.313 137.354 -111.025 136.537C-113.859 135.683 -115.824 133.811 -117.075 131.822C-119.253 128.361 -119.751 123.785 -119.911 120.066C-120.086 115.995 -119.877 111.2 -119.596 106.279C-119.018 96.1535 -118.127 85.054 -118.795 74.835C-119.477 64.4011 -121.714 56.7341 -125.895 52.3965C-127.327 50.9102 -128.294 50.6916 -128.833 50.6582C-129.516 50.6161 -130.761 50.8144 -132.716 52.0527C-136.83 54.6588 -141.783 60.3881 -147.065 68.7188C-157.44 85.0799 -167.06 108.165 -172.734 124.544L-186 119.948C-180.17 103.118 -170.131 78.8787 -158.921 61.2002C-153.411 52.5112 -147.09 44.5406 -140.228 40.1934C-136.695 37.9555 -132.525 36.3644 -127.966 36.6465C-123.262 36.9375 -119.157 39.1584 -115.788 42.6533C-107.965 50.7693 -105.511 62.8203 -104.786 73.9199C-104.047 85.2348 -105.033 97.487 -105.58 107.079C-105.862 112.017 -106.027 116.173 -105.886 119.463C-105.85 120.303 -105.795 121.041 -105.726 121.684C-104.381 120.781 -102.529 119.337 -100.088 117.086C-91.9147 109.55 -84.0111 97.7269 -76.1982 84.4404C-68.6953 71.6809 -60.9452 56.939 -54.0059 45.8711C-50.4552 40.208 -46.8169 34.9923 -43.0938 30.9189C-39.495 26.9818 -35.1053 23.3087 -29.8984 22.0283C-23.9789 20.5728 -18.48 22.5229 -14.0068 26.8447C-9.86746 30.8442 -6.39479 37.0071 -3.2627 44.9492C2.97853 60.7754 6.54848 76.4998 9.04883 90.2451C11.6356 104.466 12.9281 115.435 14.8652 123.771C15.8159 127.861 16.73 130.334 17.5459 131.666C17.5692 131.704 17.5939 131.739 17.6152 131.772C18.2344 131.519 19.3888 130.923 21.1904 129.513C24.1334 127.209 27.9603 123.412 32.9102 117.665C42.8192 106.159 53.9162 91.1622 64.749 76.1143C75.4903 61.1935 86.0309 46.1375 94.5498 34.9658C98.8047 29.3859 102.727 24.5448 106.052 21.0713C107.699 19.3501 109.39 17.7624 111.05 16.5693C112.364 15.6248 115.064 13.8581 118.408 14.0537C120.439 14.1726 122.417 15.0047 123.947 16.5635C125.335 17.9769 125.986 19.6077 126.312 20.832C126.934 23.1624 126.836 25.7801 126.574 28.1299C126.024 33.0609 124.316 40.1465 121.483 49.5488C115.888 68.1231 112.613 81.4481 111.092 90.7725C110.331 95.4353 110.04 98.9137 110.069 101.442C110.081 102.455 110.144 103.236 110.223 103.826C112.804 102.827 116.437 100.531 121.206 97.1484L121.217 97.1641C122.424 96.1535 123.887 94.6024 125.587 92.3789C127.874 89.3866 130.278 85.5985 132.802 81.2217C137.958 72.279 142.918 62.1621 148.358 52.1191C153.523 42.5863 159.175 33.0205 165.138 27.1904C168.118 24.2762 171.982 21.4788 176.669 20.8535C181.873 20.1593 186.427 22.3239 189.983 26.0127C197.852 34.1755 200.2 46.4566 200.812 57.7637C201.439 69.3239 200.305 81.8892 199.617 91.8242C199.264 96.9277 199.03 101.267 199.113 104.735C199.137 105.744 199.187 106.624 199.26 107.383C200.539 106.506 202.278 105.138 204.546 103.047C212.719 95.5105 220.624 83.688 228.437 70.4014C235.939 57.6418 243.689 42.8999 250.628 31.832C254.179 26.1688 257.818 20.9533 261.541 16.8799C265.14 12.9429 269.529 9.26964 274.735 7.98926C280.655 6.53373 286.154 8.48393 290.627 12.8057C294.766 16.8051 298.239 22.9679 301.371 30.9102C307.612 46.7364 311.182 62.4607 313.683 76.2061C316.269 90.4266 317.562 101.396 319.499 109.731C320.45 113.822 321.364 116.295 322.18 117.627C322.203 117.665 322.228 117.7 322.249 117.733C322.868 117.48 324.022 116.884 325.824 115.474C328.767 113.17 332.594 109.374 337.544 103.626C347.453 92.12 358.551 77.1233 369.384 62.0752C380.125 47.1544 390.665 32.0984 399.184 20.9268C403.439 15.3467 407.36 10.5058 410.686 7.03223C412.333 5.31097 414.024 3.72333 415.684 2.53027Z" fill="#FF913C"/>
</svg>
