<svg width="159" height="159" viewBox="0 0 159 159" fill="none" xmlns="http://www.w3.org/2000/svg">
<rect width="159" height="159" rx="34" fill="black"/>
<path d="M129.45 64.0029C130.986 64.0517 133.161 64.787 134.289 67.0781C135.132 68.791 134.866 70.4456 134.723 71.1445C134.397 72.7292 133.536 74.4989 132.585 76.21C131.634 77.9214 130.931 79.31 130.422 80.4229L131.714 83.7822L133.509 88.4482C131.906 89.0645 130.024 89.7533 128.314 90.082C127.455 90.2473 126.334 90.3858 125.147 90.2363C123.912 90.0805 122.271 89.5598 120.977 88.1035C119.693 86.6595 119.34 84.9594 119.312 83.6426C119.296 82.8637 119.388 82.0909 119.539 81.3486C114.998 84.7919 109.759 88.7543 105.378 91.5127C103.576 92.6475 101.933 93.5592 100.433 94.1963C98.9702 94.8171 97.3295 95.3136 95.6172 95.3047C93.7174 95.2947 91.9471 94.6588 90.5137 93.3896C89.2348 92.2572 88.5068 90.8661 88.0557 89.8135C87.597 88.7431 87.2381 87.5597 86.9385 86.5479C86.6144 85.4535 86.3235 84.4301 85.9502 83.3174C85.2244 81.1539 84.2667 78.9182 82.6699 76.7227C81.9725 75.7637 81.5098 75.463 81.3643 75.3867C81.2959 75.3509 81.3073 75.3535 81.2344 75.3633C80.7197 75.4319 79.513 75.9678 77.2344 77.9385C74.9153 79.9442 72.9957 82.0016 69.9941 84.7695C67.2934 87.26 64.0952 89.9313 60.4502 91.7539C58.8028 92.5776 57.1719 93.2455 55.6299 93.5273C54.1239 93.8025 51.7118 93.8709 49.6846 92.124C47.7923 90.4934 47.4605 88.2943 47.376 87.2285C47.2827 86.0511 47.3989 84.8237 47.4912 83.9463C47.7156 81.8142 47.9137 80.4605 47.7656 79.2314C47.6558 78.32 47.4538 78.2471 47.2627 78.1396C47.2465 78.1303 47.0283 77.9492 46.1299 78.2578C45.1365 78.5992 43.8104 79.3979 42.251 80.7314C39.1519 83.3816 36.1831 87.2262 34.4277 89.9736L30.2139 87.2822L26 84.5898C28.078 81.3373 31.6595 76.6315 35.752 73.1318C37.7879 71.3908 40.2181 69.7148 42.8818 68.7998C45.6392 67.8527 48.9807 67.6328 52.165 69.4238C55.9738 71.5662 57.3344 75.0564 57.6934 78.0352C57.8458 79.3003 57.8275 80.6117 57.752 81.793C59.5268 80.6558 61.3281 79.1588 63.2148 77.4189C65.4318 75.3746 68.3876 72.3692 70.6934 70.375C73.0396 68.3458 76.2083 65.9441 79.9121 65.4502C84.3998 64.8518 88.0566 67.1267 90.7578 70.8408C93.1609 74.145 94.5158 77.4097 95.4307 80.1367C95.8776 81.469 96.2392 82.7391 96.5264 83.709C96.6568 84.1494 96.7714 84.5194 96.873 84.835C97.6543 84.4737 98.6902 83.9068 100.05 83.0508C106.717 78.8531 114.293 72.5792 120.441 68.207C121.889 67.1779 123.296 66.2316 124.536 65.5293C125.154 65.1791 125.834 64.8303 126.526 64.5605C127.12 64.329 128.192 63.9631 129.45 64.0029Z" fill="#FF913C"/>
</svg>
