<svg width="171" height="171" viewBox="0 0 171 171" fill="none" xmlns="http://www.w3.org/2000/svg">
<g clip-path="url(#clip0_956_20834)">
<path d="M171 85.5C171 132.72 132.72 171 85.5 171C38.285 171 0 132.72 0 85.5C0 38.285 38.285 0 85.5 0C132.72 0 171 38.285 171 85.5Z" fill="#FFCC4D"/>
<path d="M85.5 52.25C127.058 52.25 161.657 73.6677 169.366 102.049C170.42 96.691 171 91.162 171 85.5C171 38.285 132.72 0 85.5 0C38.285 0 0 38.285 0 85.5C0 91.162 0.58425 96.691 1.634 102.049C9.34325 73.6677 43.947 52.25 85.5 52.25Z" fill="#BDDDF4"/>
<path d="M54.625 95C61.1834 95 66.5 87.5567 66.5 78.375C66.5 69.1933 61.1834 61.75 54.625 61.75C48.0666 61.75 42.75 69.1933 42.75 78.375C42.75 87.5567 48.0666 95 54.625 95Z" fill="#664500"/>
<path d="M116.375 95C122.933 95 128.25 87.5567 128.25 78.375C128.25 69.1933 122.933 61.75 116.375 61.75C109.817 61.75 104.5 69.1933 104.5 78.375C104.5 87.5567 109.817 95 116.375 95Z" fill="#664500"/>
<path d="M28.4953 57C27.6135 56.9991 26.7494 56.7528 25.9998 56.2887C25.2501 55.8246 24.6443 55.161 24.2504 54.3722C23.8565 53.5833 23.6899 52.7004 23.7693 51.8223C23.8487 50.9441 24.171 50.1054 24.7 49.4C40.1945 28.7375 60.876 28.5 61.75 28.5C62.3738 28.4988 62.9917 28.6204 63.5685 28.8579C64.1452 29.0955 64.6696 29.4443 65.1115 29.8845C65.5535 30.3247 65.9044 30.8477 66.1443 31.4235C66.3842 31.9993 66.5083 32.6167 66.5095 33.2405C66.5107 33.8643 66.3891 34.4822 66.1516 35.059C65.914 35.6358 65.5652 36.1601 65.125 36.602C64.6848 37.044 64.1618 37.3949 63.586 37.6348C63.0102 37.8747 62.3928 37.9988 61.769 38C61.0328 38.0095 44.821 38.4085 32.3 55.1C31.8571 55.6906 31.2826 56.1698 30.6221 56.4996C29.9617 56.8294 29.2335 57.0007 28.4953 57ZM142.505 57C141.767 57.0007 141.038 56.8294 140.378 56.4996C139.717 56.1698 139.143 55.6906 138.7 55.1C126.16 38.3753 109.91 38.0095 109.222 38C107.965 37.9887 106.764 37.48 105.882 36.5853C105 35.6906 104.508 34.4828 104.514 33.2263C104.517 31.9719 105.017 30.7698 105.905 29.8837C106.793 28.9976 107.996 28.5 109.25 28.5C110.124 28.5 130.801 28.7375 146.3 49.4C146.829 50.1054 147.151 50.9441 147.231 51.8223C147.31 52.7004 147.144 53.5833 146.75 54.3722C146.356 55.161 145.75 55.8246 145 56.2887C144.251 56.7528 143.386 56.9991 142.505 57ZM111.554 132.425C111.502 132.216 106.115 111.625 85.5 111.625C64.885 111.625 59.4985 132.216 59.4463 132.425C59.3269 132.917 59.3693 133.434 59.5669 133.899C59.7646 134.364 60.107 134.754 60.5435 135.009C60.9851 135.266 61.4968 135.377 62.0053 135.326C62.5137 135.275 62.993 135.064 63.3745 134.724C63.4268 134.686 68.1958 130.625 85.5 130.625C102.548 130.625 107.431 134.568 107.616 134.724C107.989 135.078 108.467 135.3 108.977 135.359C109.487 135.418 110.003 135.31 110.447 135.051C110.891 134.792 111.238 134.396 111.438 133.923C111.637 133.449 111.678 132.924 111.554 132.425Z" fill="#664500"/>
</g>
<defs>
<clipPath id="clip0_956_20834">
<rect width="171" height="171" fill="white"/>
</clipPath>
</defs>
</svg>
