<svg width="171" height="171" viewBox="0 0 171 171" fill="none" xmlns="http://www.w3.org/2000/svg">
<g clip-path="url(#clip0_956_20821)">
<path d="M171 85.5C171 132.72 132.72 171 85.5 171C38.285 171 0 132.72 0 85.5C0 38.285 38.285 0 85.5 0C132.72 0 171 38.285 171 85.5Z" fill="#DA2F47"/>
<path d="M121.053 141.925C120.84 141.075 115.505 121.125 85.4997 121.125C55.494 121.125 50.1597 141.075 49.946 141.925C49.822 142.427 49.8648 142.955 50.0679 143.43C50.2711 143.904 50.6235 144.3 51.0717 144.557C51.5236 144.808 52.044 144.908 52.5568 144.842C53.0696 144.776 53.5479 144.548 53.9217 144.191C54.012 144.101 63.2032 135.375 85.4997 135.375C107.796 135.375 116.992 144.101 117.078 144.186C117.445 144.551 117.921 144.786 118.433 144.855C118.946 144.925 119.467 144.825 119.918 144.571C120.371 144.315 120.727 143.918 120.932 143.44C121.138 142.962 121.18 142.43 121.053 141.925ZM74.608 82.1417C59.1467 66.6805 34.2995 66.5 33.2497 66.5C32.0267 66.5541 30.8716 67.0779 30.0251 67.9623C29.1785 68.8466 28.7057 70.0235 28.7051 71.2477C28.7045 72.472 29.1761 73.6493 30.0218 74.5345C30.8674 75.4198 32.022 75.9447 33.245 76C33.3827 76 42.3887 76.1045 52.1642 79.5007C49.3475 82.5408 47.4997 87.2623 47.4997 92.625C47.4997 101.812 52.815 109.25 59.3747 109.25C65.9345 109.25 71.2497 101.812 71.2497 92.625C71.2497 91.7985 71.1595 91.01 71.074 90.2168C71.1357 90.2168 71.1927 90.25 71.2497 90.25C72.1901 90.2521 73.1098 89.9747 73.8922 89.4532C74.6747 88.9316 75.2845 88.1893 75.6443 87.3206C76.0041 86.4518 76.0977 85.4957 75.9132 84.5737C75.7287 83.6516 75.2744 82.8052 74.608 82.1417ZM137.75 66.5C136.7 66.5 111.857 66.6805 96.3915 82.1417C95.7251 82.8052 95.2708 83.6516 95.0863 84.5737C94.9017 85.4957 94.9953 86.4518 95.3552 87.3206C95.715 88.1893 96.3248 88.9316 97.1072 89.4532C97.8897 89.9747 98.8094 90.2521 99.7497 90.25C99.8115 90.25 99.8637 90.2168 99.9207 90.2168C99.8447 91.01 99.7497 91.7985 99.7497 92.625C99.7497 101.812 105.065 109.25 111.625 109.25C118.184 109.25 123.5 101.812 123.5 92.625C123.5 87.2623 121.652 82.5408 118.835 79.5007C124.94 77.4224 131.315 76.2432 137.759 76C138.383 75.9994 139.001 75.8759 139.577 75.6366C140.153 75.3973 140.676 75.0469 141.117 74.6054C141.557 74.1639 141.907 73.6399 142.145 73.0634C142.383 72.4868 142.505 71.869 142.504 71.2453C142.504 70.6215 142.38 70.0039 142.141 69.4279C141.902 68.8518 141.551 68.3285 141.11 67.8879C140.668 67.4472 140.144 67.0979 139.568 66.8598C138.991 66.6216 138.374 66.4994 137.75 66.5Z" fill="#292F33"/>
</g>
<defs>
<clipPath id="clip0_956_20821">
<rect width="171" height="171" fill="white"/>
</clipPath>
</defs>
</svg>
