<svg width="171" height="171" viewBox="0 0 171 171" fill="none" xmlns="http://www.w3.org/2000/svg">
<g clip-path="url(#clip0_956_20803)">
<path d="M171 85.5C171 132.72 132.72 171 85.5 171C38.285 171 0 132.72 0 85.5C0 38.285 38.285 0 85.5 0C132.72 0 171 38.285 171 85.5Z" fill="#FFCC4D"/>
<path d="M54.625 95C61.1834 95 66.5 87.5567 66.5 78.375C66.5 69.1933 61.1834 61.75 54.625 61.75C48.0666 61.75 42.75 69.1933 42.75 78.375C42.75 87.5567 48.0666 95 54.625 95Z" fill="#664500"/>
<path d="M116.375 95C122.933 95 128.25 87.5567 128.25 78.375C128.25 69.1933 122.933 61.75 116.375 61.75C109.817 61.75 104.5 69.1933 104.5 78.375C104.5 87.5567 109.817 95 116.375 95Z" fill="#664500"/>
<path d="M118.75 123.5H52.25C50.9902 123.5 49.782 123 48.8912 122.109C48.0004 121.218 47.5 120.01 47.5 118.75C47.5 117.49 48.0004 116.282 48.8912 115.391C49.782 114.5 50.9902 114 52.25 114H118.75C120.01 114 121.218 114.5 122.109 115.391C123 116.282 123.5 117.49 123.5 118.75C123.5 120.01 123 121.218 122.109 122.109C121.218 123 120.01 123.5 118.75 123.5Z" fill="#664500"/>
</g>
<defs>
<clipPath id="clip0_956_20803">
<rect width="171" height="171" fill="white"/>
</clipPath>
</defs>
</svg>
