<svg width="171" height="171" viewBox="0 0 171 171" fill="none" xmlns="http://www.w3.org/2000/svg">
<g clip-path="url(#clip0_956_20842)">
<path d="M171 85.5C171 132.72 132.72 171 85.5 171C38.285 171 0 132.72 0 85.5C0 38.285 38.285 0 85.5 0C132.72 0 171 38.285 171 85.5Z" fill="#FFCC4D"/>
<path d="M137.75 128.25C150.867 128.25 161.5 117.617 161.5 104.5C161.5 91.3832 150.867 80.75 137.75 80.75C124.633 80.75 114 91.3832 114 104.5C114 117.617 124.633 128.25 137.75 128.25Z" fill="#FF7892"/>
<path d="M33.25 128.25C46.3668 128.25 57 117.617 57 104.5C57 91.3832 46.3668 80.75 33.25 80.75C20.1332 80.75 9.5 91.3832 9.5 104.5C9.5 117.617 20.1332 128.25 33.25 128.25Z" fill="#FF7892"/>
<path d="M137.75 66.5002C136.49 66.4999 135.282 65.9993 134.392 65.1084C122.151 52.8772 100.88 56.8624 100.671 56.9099C100.06 57.0328 99.4295 57.0335 98.8175 56.9119C98.2054 56.7903 97.6235 56.5488 97.1052 56.2013C96.5868 55.8539 96.1424 55.4073 95.7973 54.8873C95.4523 54.3674 95.2136 53.7843 95.0949 53.1717C94.8514 51.9393 95.1061 50.6606 95.8031 49.6155C96.5001 48.5704 97.5828 47.844 98.8141 47.5952C99.8924 47.3767 125.238 42.5364 141.103 58.3919C141.77 59.055 142.224 59.9011 142.408 60.8227C142.593 61.7443 142.5 62.7 142.141 63.5685C141.781 64.4371 141.172 65.1794 140.391 65.7014C139.609 66.2233 138.69 66.5013 137.75 66.5002ZM33.2499 66.5002C32.3095 66.5023 31.3898 66.2249 30.6074 65.7033C29.8249 65.1818 29.2151 64.4395 28.8553 63.5707C28.4955 62.702 28.4019 61.7459 28.5864 60.8238C28.7709 59.9018 29.2252 59.0553 29.8916 58.3919C45.7566 42.5222 71.1121 47.3814 72.1809 47.5952C73.4167 47.8415 74.5041 48.5686 75.2038 49.6166C75.9035 50.6646 76.1583 51.9477 75.912 53.1836C75.6657 54.4194 74.9386 55.5068 73.8906 56.2065C72.8425 56.9062 71.5595 57.161 70.3236 56.9147C69.9959 56.8434 48.8109 52.9104 36.6081 65.1132C35.7168 66.0023 34.5089 66.5012 33.2499 66.5002ZM123.5 90.2502C122.24 90.2499 121.032 89.7493 120.142 88.8584C113.948 82.6597 100.714 84.2319 96.1446 85.3624C94.922 85.6667 93.6286 85.4728 92.549 84.8234C91.4693 84.174 90.6919 83.1223 90.3876 81.8997C90.0834 80.6771 90.2773 79.3837 90.9267 78.304C91.5761 77.2244 92.6278 76.4469 93.8504 76.1427C94.7339 75.9242 115.582 70.8654 126.858 82.1419C127.525 82.8053 127.979 83.6518 128.163 84.5738C128.348 85.4959 128.254 86.452 127.894 87.3207C127.535 88.1895 126.925 88.9318 126.142 89.4533C125.36 89.9749 124.44 90.2523 123.5 90.2502ZM47.4999 90.2502C46.5595 90.2523 45.6398 89.9749 44.8574 89.4533C44.0749 88.9318 43.4651 88.1895 43.1053 87.3207C42.7455 86.452 42.6519 85.4959 42.8364 84.5738C43.0209 83.6518 43.4752 82.8053 44.1416 82.1419C55.4134 70.8702 76.2706 75.9242 77.1541 76.1427C78.3767 76.4469 79.4284 77.2244 80.0778 78.304C80.7272 79.3837 80.9211 80.6771 80.6169 81.8997C80.3126 83.1223 79.5352 84.174 78.4555 84.8234C77.3759 85.4728 76.0825 85.6667 74.8599 85.3624C70.2809 84.2367 57.0521 82.6692 50.8629 88.8584C50.4213 89.3001 49.897 89.6504 49.32 89.8892C48.7429 90.128 48.1244 90.2507 47.4999 90.2502Z" fill="#664500"/>
<path d="M61.75 118.75C61.75 118.75 66.5 137.75 85.5 137.75C104.5 137.75 109.25 118.75 109.25 118.75C109.25 118.75 104.5 123.5 85.5 123.5C66.5 123.5 61.75 118.75 61.75 118.75Z" fill="#664500"/>
<path d="M85.5001 140.125C64.8851 140.125 59.4986 119.534 59.4463 119.325C59.3243 118.827 59.3663 118.302 59.5663 117.83C59.7662 117.358 60.1134 116.963 60.556 116.704C60.9986 116.445 61.513 116.336 62.0226 116.393C62.5322 116.45 63.0098 116.67 63.3841 117.021C63.5693 117.182 68.4476 121.125 85.5001 121.125C102.809 121.125 107.573 117.064 107.621 117.026C108.003 116.685 108.483 116.473 108.992 116.422C109.502 116.371 110.014 116.482 110.457 116.741C110.893 116.996 111.236 117.385 111.433 117.851C111.631 118.316 111.673 118.833 111.554 119.325C111.502 119.534 106.115 140.125 85.5001 140.125ZM66.2578 123.538C68.9986 128.592 74.6891 135.375 85.5001 135.375C96.3111 135.375 102.006 128.592 104.742 123.538C100.847 124.763 94.7626 125.875 85.5001 125.875C76.2376 125.875 70.1528 124.763 66.2578 123.538Z" fill="#664500"/>
</g>
<defs>
<clipPath id="clip0_956_20842">
<rect width="171" height="171" fill="white"/>
</clipPath>
</defs>
</svg>
