<svg width="171" height="171" viewBox="0 0 171 171" fill="none" xmlns="http://www.w3.org/2000/svg">
<g clip-path="url(#clip0_956_20826)">
<path d="M85.5 171C132.72 171 171 132.72 171 85.5C171 38.2797 132.72 0 85.5 0C38.2797 0 0 38.2797 0 85.5C0 132.72 38.2797 171 85.5 171Z" fill="#FFCC4D"/>
<path d="M85.5 99.7499C68.2907 99.7499 56.8717 97.7454 42.75 94.9999C39.5247 94.3777 33.25 94.9999 33.25 104.5C33.25 123.5 55.0762 147.25 85.5 147.25C115.919 147.25 137.75 123.5 137.75 104.5C137.75 94.9999 131.475 94.3729 128.25 94.9999C114.128 97.7454 102.709 99.7499 85.5 99.7499Z" fill="#664500"/>
<path d="M42.75 104.5C42.75 104.5 57 109.25 85.5 109.25C114 109.25 128.25 104.5 128.25 104.5C128.25 104.5 118.75 123.5 85.5 123.5C52.25 123.5 42.75 104.5 42.75 104.5Z" fill="white"/>
<path d="M57 80.75C63.5584 80.75 68.875 73.3067 68.875 64.125C68.875 54.9433 63.5584 47.5 57 47.5C50.4416 47.5 45.125 54.9433 45.125 64.125C45.125 73.3067 50.4416 80.75 57 80.75Z" fill="#664500"/>
<path d="M114 80.75C120.558 80.75 125.875 73.3067 125.875 64.125C125.875 54.9433 120.558 47.5 114 47.5C107.442 47.5 102.125 54.9433 102.125 64.125C102.125 73.3067 107.442 80.75 114 80.75Z" fill="#664500"/>
</g>
<defs>
<clipPath id="clip0_956_20826">
<rect width="171" height="171" fill="white"/>
</clipPath>
</defs>
</svg>
