<svg width="171" height="171" viewBox="0 0 171 171" fill="none" xmlns="http://www.w3.org/2000/svg">
<g clip-path="url(#clip0_956_20852)">
<path d="M171 85.5C171 132.72 132.72 171 85.5 171C38.285 171 0 132.72 0 85.5C0 38.285 38.285 0 85.5 0C132.72 0 171 38.285 171 85.5Z" fill="#FFCC4D"/>
<path d="M54.625 97.375C61.1834 97.375 66.5 89.9317 66.5 80.75C66.5 71.5683 61.1834 64.125 54.625 64.125C48.0666 64.125 42.75 71.5683 42.75 80.75C42.75 89.9317 48.0666 97.375 54.625 97.375Z" fill="#664500"/>
<path d="M116.375 97.375C122.933 97.375 128.25 89.9317 128.25 80.75C128.25 71.5683 122.933 64.125 116.375 64.125C109.817 64.125 104.5 71.5683 104.5 80.75C104.5 89.9317 109.817 97.375 116.375 97.375Z" fill="#664500"/>
<path d="M28.4953 64.125C27.6135 64.1241 26.7494 63.8778 25.9998 63.4137C25.2501 62.9496 24.6443 62.286 24.2504 61.4972C23.8565 60.7083 23.6899 59.8254 23.7693 58.9473C23.8487 58.0691 24.171 57.2304 24.7 56.525C40.1945 35.8625 60.876 35.625 61.75 35.625C62.3738 35.6238 62.9917 35.7454 63.5685 35.9829C64.1452 36.2205 64.6696 36.5693 65.1115 37.0095C65.5535 37.4497 65.9044 37.9727 66.1443 38.5485C66.3842 39.1243 66.5083 39.7417 66.5095 40.3655C66.5107 40.9893 66.3891 41.6072 66.1516 42.184C65.914 42.7608 65.5652 43.2851 65.125 43.727C64.6848 44.169 64.1618 44.5199 63.586 44.7598C63.0102 44.9997 62.3928 45.1238 61.769 45.125C61.0328 45.1345 44.821 45.5335 32.3 62.225C31.8571 62.8156 31.2826 63.2948 30.6221 63.6246C29.9617 63.9544 29.2335 64.1257 28.4953 64.125ZM142.505 64.125C141.767 64.1257 141.038 63.9544 140.378 63.6246C139.717 63.2948 139.143 62.8156 138.7 62.225C126.155 45.5003 109.91 45.1298 109.222 45.125C107.965 45.1137 106.764 44.605 105.882 43.7103C105 42.8156 104.508 41.6078 104.514 40.3513C104.517 39.0969 105.017 37.8948 105.905 37.0087C106.793 36.1226 107.996 35.625 109.25 35.625C110.124 35.625 130.801 35.8625 146.3 56.525C146.829 57.2304 147.151 58.0691 147.231 58.9473C147.31 59.8254 147.144 60.7083 146.75 61.4972C146.356 62.286 145.75 62.9496 145 63.4137C144.251 63.8778 143.386 64.1241 142.505 64.125ZM111.554 134.8C111.502 134.591 106.115 114 85.5 114C64.885 114 59.4985 134.591 59.4463 134.8C59.3312 135.292 59.3761 135.808 59.5743 136.273C59.7724 136.737 60.1136 137.127 60.5483 137.384C60.9899 137.641 61.5015 137.752 62.01 137.701C62.5185 137.65 62.9978 137.439 63.3793 137.099C63.422 137.061 68.191 133 85.5 133C102.553 133 107.431 136.943 107.616 137.099C107.989 137.453 108.467 137.675 108.977 137.734C109.487 137.793 110.003 137.685 110.447 137.426C110.891 137.167 111.238 136.771 111.438 136.298C111.637 135.824 111.678 135.299 111.554 134.8Z" fill="#664500"/>
<path d="M76 147.25C76 160.369 65.3695 171 52.25 171C39.1305 171 28.5 160.369 28.5 147.25C28.5 134.131 47.5 99.75 52.25 99.75C57 99.75 76 134.131 76 147.25Z" fill="#5DADEC"/>
</g>
<defs>
<clipPath id="clip0_956_20852">
<rect width="171" height="171" fill="white"/>
</clipPath>
</defs>
</svg>
