<svg width="171" height="171" viewBox="0 0 171 171" fill="none" xmlns="http://www.w3.org/2000/svg">
<g clip-path="url(#clip0_956_20810)">
<path d="M171 85.5C171 132.72 132.72 171 85.5 171C38.285 171 0 132.72 0 85.5C0 38.285 38.285 0 85.5 0C132.72 0 171 38.285 171 85.5Z" fill="#FFCC4D"/>
<path d="M137.75 133C150.867 133 161.5 122.367 161.5 109.25C161.5 96.1332 150.867 85.5 137.75 85.5C124.633 85.5 114 96.1332 114 109.25C114 122.367 124.633 133 137.75 133Z" fill="#FF7892"/>
<path d="M33.25 133C46.3668 133 57 122.367 57 109.25C57 96.1332 46.3668 85.5 33.25 85.5C20.1332 85.5 9.5 96.1332 9.5 109.25C9.5 122.367 20.1332 133 33.25 133Z" fill="#FF7892"/>
<path d="M116.375 104.5C130.803 104.5 142.5 92.8034 142.5 78.375C142.5 63.9466 130.803 52.25 116.375 52.25C101.947 52.25 90.25 63.9466 90.25 78.375C90.25 92.8034 101.947 104.5 116.375 104.5Z" fill="#F5F8FA"/>
<path d="M54.625 104.5C69.0534 104.5 80.75 92.8034 80.75 78.375C80.75 63.9466 69.0534 52.25 54.625 52.25C40.1966 52.25 28.5 63.9466 28.5 78.375C28.5 92.8034 40.1966 104.5 54.625 104.5Z" fill="#F5F8FA"/>
<path d="M54.625 90.25C61.1834 90.25 66.5 84.9334 66.5 78.375C66.5 71.8166 61.1834 66.5 54.625 66.5C48.0666 66.5 42.75 71.8166 42.75 78.375C42.75 84.9334 48.0666 90.25 54.625 90.25Z" fill="#292F33"/>
<path d="M116.375 90.25C122.933 90.25 128.25 84.9334 128.25 78.375C128.25 71.8166 122.933 66.5 116.375 66.5C109.817 66.5 104.5 71.8166 104.5 78.375C104.5 84.9334 109.817 90.25 116.375 90.25Z" fill="#292F33"/>
<path d="M104.5 142.5H66.5C65.2402 142.5 64.032 142 63.1412 141.109C62.2505 140.218 61.75 139.01 61.75 137.75C61.75 136.49 62.2505 135.282 63.1412 134.391C64.032 133.5 65.2402 133 66.5 133H104.5C105.76 133 106.968 133.5 107.859 134.391C108.75 135.282 109.25 136.49 109.25 137.75C109.25 139.01 108.75 140.218 107.859 141.109C106.968 142 105.76 142.5 104.5 142.5ZM142.505 52.25C141.767 52.2507 141.038 52.0794 140.378 51.7496C139.717 51.4198 139.143 50.9406 138.7 50.35C126.16 33.6253 109.91 33.2595 109.222 33.25C107.965 33.2387 106.764 32.73 105.882 31.8353C105 30.9406 104.508 29.7328 104.514 28.4763C104.517 27.2219 105.017 26.0198 105.905 25.1337C106.793 24.2476 107.996 23.75 109.25 23.75C110.124 23.75 130.801 23.9875 146.3 44.65C146.829 45.3554 147.151 46.1941 147.231 47.0723C147.31 47.9504 147.144 48.8333 146.75 49.6222C146.356 50.411 145.75 51.0746 145 51.5387C144.251 52.0028 143.386 52.2491 142.505 52.25ZM28.4953 52.25C27.6135 52.2491 26.7494 52.0028 25.9998 51.5387C25.2501 51.0746 24.6443 50.411 24.2504 49.6222C23.8565 48.8333 23.6899 47.9504 23.7693 47.0723C23.8487 46.1941 24.171 45.3554 24.7 44.65C40.1945 23.9875 60.876 23.75 61.75 23.75C62.3738 23.7488 62.9917 23.8704 63.5685 24.1079C64.1452 24.3455 64.6696 24.6943 65.1115 25.1345C65.5535 25.5747 65.9044 26.0977 66.1443 26.6735C66.3842 27.2493 66.5083 27.8667 66.5095 28.4905C66.5107 29.1143 66.3891 29.7322 66.1516 30.309C65.914 30.8858 65.5652 31.4101 65.125 31.852C64.6848 32.294 64.1618 32.6449 63.586 32.8848C63.0102 33.1247 62.3928 33.2488 61.769 33.25C61.0328 33.2595 44.821 33.6585 32.3 50.35C31.8571 50.9406 31.2826 51.4198 30.6221 51.7496C29.9617 52.0794 29.2335 52.2507 28.4953 52.25Z" fill="#664500"/>
</g>
<defs>
<clipPath id="clip0_956_20810">
<rect width="171" height="171" fill="white"/>
</clipPath>
</defs>
</svg>
