<svg width="171" height="171" viewBox="0 0 171 171" fill="none" xmlns="http://www.w3.org/2000/svg">
<g clip-path="url(#clip0_956_20860)">
<path d="M171 85.5C171 132.72 132.72 171 85.5 171C38.285 171 0 132.72 0 85.5C0 38.285 38.285 0 85.5 0C132.72 0 171 38.285 171 85.5Z" fill="#FFCC4D"/>
<path d="M54.625 95C61.1834 95 66.5 87.5567 66.5 78.375C66.5 69.1933 61.1834 61.75 54.625 61.75C48.0666 61.75 42.75 69.1933 42.75 78.375C42.75 87.5567 48.0666 95 54.625 95Z" fill="#664500"/>
<path d="M135.171 84.5356C134.886 83.8943 128.051 68.8748 114 68.8748C99.9495 68.8748 93.1143 83.8943 92.8293 84.5356C92.6279 85.0145 92.5881 85.5459 92.716 86.0495C92.8438 86.553 93.1323 87.0012 93.5377 87.326C93.9431 87.6509 94.4434 87.8348 94.9627 87.8498C95.4819 87.8648 95.992 87.7102 96.4155 87.4093C96.4725 87.3666 102.41 83.1248 114 83.1248C125.524 83.1248 131.452 87.3095 131.585 87.4045C132.004 87.7259 132.519 87.8976 133.048 87.892C133.576 87.8864 134.088 87.7039 134.501 87.3737C134.913 87.0435 135.204 86.5846 135.325 86.0702C135.447 85.5558 135.392 85.0155 135.171 84.5356ZM28.4953 59.1753C27.6135 59.1744 26.7494 58.9281 25.9998 58.464C25.2501 57.9999 24.6443 57.3363 24.2504 56.5474C23.8565 55.7586 23.6899 54.8757 23.7693 53.9975C23.8487 53.1194 24.171 52.2807 24.7 51.5753C40.1945 30.9128 60.876 30.6753 61.75 30.6753C63.0098 30.6728 64.219 31.1708 65.1115 32.0598C66.0041 32.9488 66.507 34.156 66.5095 35.4158C66.512 36.6756 66.014 37.8848 65.125 38.7773C64.236 39.6699 63.0288 40.1728 61.769 40.1753C61.028 40.1848 44.8163 40.5838 32.2953 57.2753C31.8528 57.8652 31.2791 58.344 30.6195 58.6738C29.96 59.0036 29.2327 59.1753 28.4953 59.1753ZM137.755 69.2691C137.017 69.2698 136.288 69.0985 135.628 68.7686C134.967 68.4388 134.393 67.9596 133.95 67.369C121.638 50.9483 100.885 54.8908 100.681 54.924C99.4473 55.1678 98.1673 54.9124 97.1217 54.2138C96.0761 53.5152 95.3501 52.4305 95.103 51.1975C94.8559 49.9645 95.1078 48.6838 95.8035 47.6363C96.4992 46.5887 97.5819 45.8598 98.8143 45.6093C99.9115 45.3861 125.685 40.5173 141.545 61.6643C142.075 62.3693 142.399 63.2081 142.479 64.0866C142.559 64.965 142.394 65.8485 142 66.638C141.606 67.4275 141.001 68.0918 140.251 68.5565C139.501 69.0212 138.637 69.268 137.755 69.2691ZM110.457 111.991C110.014 111.732 109.502 111.621 108.992 111.672C108.483 111.723 108.003 111.934 107.621 112.276C107.573 112.314 102.809 116.375 85.5 116.375C68.2053 116.375 63.4315 112.318 63.4315 112.318C63.0639 111.952 62.5866 111.717 62.0726 111.648C61.5585 111.578 61.0359 111.679 60.5846 111.935C60.1334 112.191 59.7783 112.587 59.5736 113.064C59.3689 113.541 59.3258 114.071 59.451 114.575C59.4985 114.784 64.885 135.375 85.5 135.375C106.115 135.375 111.502 114.784 111.554 114.575C111.669 114.083 111.625 113.568 111.428 113.103C111.23 112.638 110.89 112.249 110.457 111.991Z" fill="#664500"/>
</g>
<defs>
<clipPath id="clip0_956_20860">
<rect width="171" height="171" fill="white"/>
</clipPath>
</defs>
</svg>
