<svg width="171" height="171" viewBox="0 0 171 171" fill="none" xmlns="http://www.w3.org/2000/svg">
<g clip-path="url(#clip0_956_20866)">
<path d="M171 85.5C171 132.72 132.72 171 85.5 171C38.285 171 0 132.72 0 85.5C0 38.285 38.285 0 85.5 0C132.72 0 171 38.285 171 85.5Z" fill="#FFCC4D"/>
<path d="M82.2317 83.657C81.8238 83.3277 81.3184 83.1426 80.7943 83.1306C80.2702 83.1185 79.7568 83.2803 79.3342 83.5905C79.2772 83.6333 73.3492 87.875 61.7497 87.875C50.155 87.875 44.2222 83.6333 44.1747 83.6C43.7542 83.2844 43.2407 83.1173 42.715 83.1249C42.1892 83.1325 41.6808 83.3144 41.2695 83.642C40.8582 83.9696 40.5673 84.4245 40.4423 84.9352C40.3174 85.446 40.3654 85.9838 40.579 86.4643C40.864 87.1055 47.704 102.125 61.7497 102.125C75.8002 102.125 82.6355 87.1055 82.9205 86.4643C83.1305 85.9858 83.1769 85.4513 83.0524 84.9438C82.9278 84.4363 82.6394 83.984 82.2317 83.657ZM129.732 83.657C129.324 83.3277 128.818 83.1426 128.294 83.1306C127.77 83.1185 127.257 83.2803 126.834 83.5905C126.777 83.6333 120.844 87.875 109.25 87.875C97.655 87.875 91.7222 83.6333 91.6747 83.6C91.2542 83.2844 90.7407 83.1173 90.215 83.1249C89.6892 83.1325 89.1808 83.3144 88.7695 83.642C88.3582 83.9696 88.0673 84.4245 87.9423 84.9352C87.8174 85.446 87.8654 85.9838 88.079 86.4643C88.364 87.1055 95.204 102.125 109.25 102.125C123.3 102.125 130.135 87.1055 130.421 86.4643C130.631 85.9858 130.677 85.4513 130.552 84.9438C130.428 84.4363 130.139 83.984 129.732 83.657ZM104.5 133H66.4997C65.24 133 64.0318 132.5 63.141 131.609C62.2502 130.718 61.7497 129.51 61.7497 128.25C61.7497 126.99 62.2502 125.782 63.141 124.891C64.0318 124 65.24 123.5 66.4997 123.5H104.5C105.76 123.5 106.968 124 107.859 124.891C108.749 125.782 109.25 126.99 109.25 128.25C109.25 129.51 108.749 130.718 107.859 131.609C106.968 132.5 105.76 133 104.5 133ZM28.4997 66.5C27.876 66.5013 27.258 66.3796 26.6813 66.1421C26.1045 65.9045 25.5802 65.5557 25.1382 65.1155C24.2456 64.2265 23.7428 63.0193 23.7402 61.7595C23.7377 60.4997 24.2358 59.2906 25.1248 58.398C26.0138 57.5054 27.221 57.0025 28.4807 57C29.2217 56.9905 45.4335 56.5915 57.9545 39.9C58.7104 38.8922 59.8356 38.2259 61.0827 38.0478C62.3299 37.8696 63.5967 38.1941 64.6045 38.95C65.6123 39.7059 66.2786 40.8311 66.4568 42.0783C66.6349 43.3254 66.3104 44.5922 65.5545 45.6C50.0552 66.2625 29.3737 66.5 28.4997 66.5ZM142.5 66.5C141.626 66.5 120.949 66.2625 105.45 45.6C105.054 45.103 104.763 44.5318 104.592 43.9201C104.421 43.3085 104.375 42.6687 104.455 42.0388C104.536 41.4089 104.742 40.8015 105.062 40.2527C105.381 39.7038 105.808 39.2246 106.316 38.8434C106.824 38.4622 107.403 38.1868 108.019 38.0333C108.635 37.8799 109.276 37.8516 109.904 37.9501C110.531 38.0486 111.132 38.2719 111.672 38.6068C112.211 38.9418 112.678 39.3815 113.045 39.9C125.59 56.6248 141.835 56.9953 142.523 57C145.136 57.0285 147.245 59.166 147.231 61.7738C147.229 63.0277 146.73 64.2298 145.843 65.116C144.956 66.0022 143.754 66.5 142.5 66.5Z" fill="#664500"/>
</g>
<defs>
<clipPath id="clip0_956_20866">
<rect width="171" height="171" fill="white"/>
</clipPath>
</defs>
</svg>
