<svg width="171" height="171" viewBox="0 0 171 171" fill="none" xmlns="http://www.w3.org/2000/svg">
<g clip-path="url(#clip0_956_20871)">
<path d="M85.5 171C132.72 171 171 132.72 171 85.5C171 38.2797 132.72 0 85.5 0C38.2797 0 0 38.2797 0 85.5C0 132.72 38.2797 171 85.5 171Z" fill="#FFCC4D"/>
<path d="M99.7306 128.25C99.2397 128.25 98.7505 128.172 98.2628 128.017C89.9683 125.306 81.026 125.306 72.7316 128.017C72.1345 128.225 71.5021 128.311 70.8713 128.271C70.2406 128.23 69.6242 128.065 69.0582 127.784C68.4923 127.502 67.9882 127.111 67.5754 126.632C67.1627 126.153 66.8497 125.597 66.6546 124.996C66.4596 124.395 66.3865 123.761 66.4397 123.131C66.4928 122.501 66.6711 121.888 66.9641 121.328C67.2571 120.768 67.6589 120.272 68.146 119.869C68.6331 119.467 69.1957 119.165 69.8008 118.983C79.9992 115.647 90.9951 115.647 101.194 118.983C103.687 119.795 105.055 122.474 104.248 124.968C103.938 125.922 103.334 126.753 102.522 127.343C101.711 127.932 100.734 128.25 99.7306 128.25Z" fill="#65471B"/>
<path d="M144.091 57.3232C139.802 70.362 127.538 79.7195 113.245 79.7195C112.561 79.7195 111.872 79.6973 111.179 79.653C104.28 79.2171 97.7041 76.5799 92.416 72.129C92.587 74.4802 92.777 76.8647 93.062 79.444C93.784 86.037 97.261 91.2335 103.113 94.4683C107.008 96.6247 111.663 97.7362 116.475 98.0402C124.711 98.558 133.432 96.7103 139.622 93.7225C146.162 90.5638 150.414 84.878 151.288 78.1187C152.157 71.3975 149.606 64.2297 144.091 57.3232Z" fill="white"/>
<path d="M101.417 36.019C95.2564 38.6315 92.1689 46.9488 92.0264 61.1418L92.2116 61.4648C94.5404 64.8991 97.6763 67.7097 101.344 69.6501C105.012 71.5904 109.1 72.6013 113.249 72.594C125.761 72.594 136.282 63.3933 138.201 51.105C137.655 50.6063 137.151 50.098 136.572 49.604C118.926 34.5465 105.854 34.1333 101.417 36.019Z" fill="#65471B"/>
<path d="M113.245 79.7195C127.538 79.7195 139.802 70.362 144.092 57.3232C142.41 55.219 140.429 53.1432 138.197 51.1055C136.278 63.3937 125.757 72.5945 113.245 72.5945C112.707 72.5945 112.167 72.5771 111.625 72.5422C107.758 72.3019 103.996 71.1785 100.63 69.2583C97.2642 67.3381 94.3829 64.6722 92.2074 61.4652L92.0222 61.1422C91.9905 64.4736 92.1219 68.1358 92.4164 72.129C98.2423 77.0443 105.623 79.734 113.245 79.7195Z" fill="#F4900C"/>
<path d="M101.711 56.1068C104.615 56.1068 106.97 53.7526 106.97 50.8486C106.97 47.9445 104.615 45.5903 101.711 45.5903C98.8073 45.5903 96.4531 47.9445 96.4531 50.8486C96.4531 53.7526 98.8073 56.1068 101.711 56.1068Z" fill="white"/>
<path d="M57.7549 79.7195C43.4621 79.7195 31.1976 70.362 26.9084 57.3232C21.3936 64.2297 18.8476 71.3975 19.7121 78.114C20.5909 84.8732 24.8374 90.5637 31.3781 93.7177C37.5674 96.7055 46.2836 98.5532 54.5249 98.0355C59.3366 97.7315 63.9916 96.6247 67.8866 94.4635C73.7339 91.2287 77.2109 86.0323 77.9376 79.4392C78.2226 76.8647 78.4126 74.4897 78.5836 72.1432C72.7516 77.0462 65.3741 79.7298 57.7549 79.7195Z" fill="white"/>
<path d="M57.7555 72.5941C58.2938 72.5941 58.8337 72.5767 59.3752 72.5419C63.243 72.3015 67.0043 71.1781 70.3703 69.258C73.7364 67.3378 76.6178 64.6719 78.7932 61.4649L78.9785 61.1419C78.8312 46.9489 75.7485 38.6316 69.5877 36.0191C65.1512 34.1334 52.0745 34.5466 34.433 49.5994C33.8535 50.0934 33.3547 50.6016 32.8037 51.1004C34.7227 63.3934 45.244 72.5941 57.7555 72.5941Z" fill="#65471B"/>
<path d="M78.9738 61.1422L78.7885 61.4652C76.4597 64.8996 73.3239 67.7101 69.656 69.6505C65.9882 71.5908 61.9003 72.6017 57.7508 72.5945C45.2393 72.5945 34.718 63.3937 32.799 51.1055C30.5665 53.1432 28.5858 55.219 26.9043 57.3232C31.1935 70.362 43.458 79.7195 57.7508 79.7195C58.4348 79.7195 59.1236 79.6973 59.817 79.653C66.7129 79.2224 73.2891 76.592 78.5795 72.148C78.8772 68.1516 79.0086 64.4831 78.9738 61.1422Z" fill="#F4900C"/>
<path d="M46.4598 56.0977C47.1491 56.0544 47.823 55.8757 48.4433 55.5718C49.0635 55.268 49.6178 54.845 50.0745 54.327C50.5313 53.8089 50.8815 53.206 51.1052 52.5526C51.3289 51.8992 51.4218 51.2081 51.3784 50.5188C51.3351 49.8296 51.1564 49.1556 50.8525 48.5354C50.5487 47.9151 50.1257 47.3608 49.6077 46.9041C49.0896 46.4474 48.4867 46.0971 47.8333 45.8734C47.1799 45.6497 46.4888 45.5569 45.7995 45.6002C45.0916 45.6175 44.3944 45.7775 43.7498 46.0706C43.1051 46.3637 42.5262 46.7838 42.0478 47.3059C41.5694 47.828 41.2012 48.4413 40.9654 49.1091C40.7296 49.7768 40.631 50.4853 40.6754 51.192C40.7199 51.8988 40.9065 52.5893 41.2241 53.2222C41.5417 53.8551 41.9838 54.4175 42.5239 54.8755C43.064 55.3335 43.6909 55.6779 44.3672 55.8879C45.0435 56.0979 45.7553 56.1693 46.4598 56.0977Z" fill="white"/>
</g>
<defs>
<clipPath id="clip0_956_20871">
<rect width="171" height="171" fill="white"/>
</clipPath>
</defs>
</svg>
